<svg data-v-423bf9ae="" xmlns="http://www.w3.org/2000/svg" viewBox="0 0 416 90" class="iconLeft"><!----><!----><!----><g data-v-423bf9ae="" id="552d5555-94a8-4926-90d6-9d414ba7a656" fill="white" transform="matrix(5.5970152838773695,0,0,5.5970152838773695,107.64924804235815,-8.003734994529623)"><path d="M0.42 14.43L0.42 14.43L0.42 14.01L0.42 14.01Q0.42 13.80 0.63 13.80L0.63 13.80L0.72 13.80L0.72 13.80Q1.66 13.75 1.66 12.47L1.66 12.47L1.66 6.32L1.66 6.32Q1.66 4.98 0.64 4.98L0.64 4.98L0.63 4.98L0.63 4.98Q0.42 4.98 0.42 4.78L0.42 4.78L0.42 4.35L0.42 4.35Q0.42 4.14 0.63 4.14L0.63 4.14L4.94 4.14L4.94 4.14Q6.56 4.14 7.82 4.75L7.82 4.75L7.82 4.75Q9.09 5.36 9.83 6.56L9.83 6.56L9.83 6.56Q10.58 7.76 10.58 9.37L10.58 9.37L10.58 9.37Q10.58 10.50 10.26 11.44L10.26 11.44L10.26 11.44Q9.95 12.38 9.33 13.10L9.33 13.10L9.33 13.10Q8.71 13.83 7.69 14.24L7.69 14.24L7.69 14.24Q6.67 14.64 5.33 14.64L5.33 14.64L0.63 14.64L0.63 14.64Q0.42 14.64 0.42 14.43ZM3.90 4.98L3.90 12.40L3.90 12.40Q3.90 12.68 3.91 12.83L3.91 12.83L3.91 12.83Q3.92 12.99 3.97 13.19L3.97 13.19L3.97 13.19Q4.03 13.38 4.13 13.48L4.13 13.48L4.13 13.48Q4.24 13.58 4.44 13.65L4.44 13.65L4.44 13.65Q4.64 13.73 4.94 13.73L4.94 13.73L4.94 13.73Q5.74 13.73 6.35 13.54L6.35 13.54L6.35 13.54Q6.95 13.34 7.35 12.99L7.35 12.99L7.35 12.99Q7.75 12.64 7.99 12.09L7.99 12.09L7.99 12.09Q8.24 11.55 8.34 10.89L8.34 10.89L8.34 10.89Q8.44 10.23 8.44 9.37L8.44 9.37L8.44 9.37Q8.44 7.29 7.43 6.14L7.43 6.14L7.43 6.14Q6.41 4.98 4.55 4.98L4.55 4.98L3.90 4.98ZM11.40 11.08L11.40 11.08L11.40 11.08Q11.40 10.33 11.59 9.71L11.59 9.71L11.59 9.71Q11.79 9.10 12.10 8.69L12.10 8.69L12.10 8.69Q12.42 8.29 12.85 8.01L12.85 8.01L12.85 8.01Q13.29 7.73 13.76 7.61L13.76 7.61L13.76 7.61Q14.23 7.49 14.74 7.49L14.74 7.49L14.74 7.49Q15.27 7.49 15.75 7.67L15.75 7.67L15.75 7.67Q16.22 7.85 16.56 8.13L16.56 8.13L16.56 8.13Q16.89 8.42 17.13 8.78L17.13 8.78L17.13 8.78Q17.38 9.14 17.50 9.50L17.50 9.50L17.50 9.50Q17.62 9.86 17.62 10.19L17.62 10.19L17.62 10.19Q17.62 10.31 17.50 10.36L17.50 10.36L13.44 12.14L13.44 12.14Q13.71 12.79 14.24 13.22L14.24 13.22L14.24 13.22Q14.78 13.64 15.54 13.64L15.54 13.64L15.54 13.64Q16.01 13.64 16.49 13.38L16.49 13.38L16.49 13.38Q16.97 13.13 17.32 12.61L17.32 12.61L17.32 12.61Q17.36 12.55 17.44 12.55L17.44 12.55L17.44 12.55Q17.53 12.55 18.00 12.82L18.00 12.82L18.00 12.82Q18.05 12.86 18.05 12.93L18.05 12.93L18.05 12.93Q18.05 13.02 17.96 13.18L17.96 13.18L17.96 13.18Q17.08 14.81 15.16 14.81L15.16 14.81L15.16 14.81Q14.03 14.81 13.17 14.30L13.17 14.30L13.17 14.30Q12.30 13.79 11.85 12.94L11.85 12.94L11.85 12.94Q11.40 12.10 11.40 11.08ZM13.48 9.05L13.48 9.05L13.48 9.05Q13.14 9.50 13.14 10.20L13.14 10.20L13.14 10.20Q13.14 10.90 13.27 11.27L13.27 11.27L15.52 10.13L15.52 10.13Q15.52 9.47 15.20 9.03L15.20 9.03L15.20 9.03Q14.88 8.59 14.40 8.59L14.40 8.59L14.40 8.59Q13.83 8.59 13.48 9.05ZM17.86 8.26L17.86 8.26L17.86 7.85L17.86 7.85Q17.86 7.64 18.07 7.64L18.07 7.64L21.30 7.64L21.30 7.64Q21.51 7.64 21.51 7.85L21.51 7.85L21.51 8.26L21.51 8.26Q21.51 8.48 21.30 8.48L21.30 8.48L21.27 8.48L21.27 8.48Q20.80 8.48 20.80 8.89L20.80 8.89L20.80 8.89Q20.80 9.23 21.08 9.81L21.08 9.81L22.37 12.54L23.56 9.81L23.56 9.81Q23.89 9.05 23.89 8.77L23.89 8.77L23.89 8.77Q23.89 8.48 23.58 8.48L23.58 8.48L23.31 8.48L23.31 8.48Q23.10 8.48 23.10 8.26L23.10 8.26L23.10 7.85L23.10 7.85Q23.10 7.64 23.31 7.64L23.31 7.64L25.87 7.64L25.87 7.64Q26.09 7.64 26.09 7.85L26.09 7.85L26.09 8.26L26.09 8.26Q26.09 8.48 25.87 8.48L25.87 8.48L25.68 8.48L25.68 8.48Q25.44 8.48 25.27 8.66L25.27 8.66L25.27 8.66Q25.09 8.84 24.86 9.35L24.86 9.35L22.50 14.49L22.50 14.49Q22.43 14.64 22.25 14.64L22.25 14.64L21.51 14.64L21.51 14.64Q21.33 14.64 21.27 14.49L21.27 14.49L18.91 9.36L18.91 9.36Q18.66 8.83 18.51 8.65L18.51 8.65L18.51 8.65Q18.35 8.48 18.10 8.48L18.10 8.48L18.07 8.48L18.07 8.48Q17.86 8.48 17.86 8.26ZM26.24 4.74L26.24 4.74L26.24 4.31L26.24 4.31Q26.24 4.11 26.45 4.11L26.45 4.11L30.74 4.11L30.74 4.11Q30.95 4.11 30.95 4.31L30.95 4.31L30.95 4.74L30.95 4.74Q30.95 4.95 30.74 4.95L30.74 4.95L30.74 4.95Q30.30 4.95 29.98 5.23L29.98 5.23L29.98 5.23Q29.66 5.50 29.66 5.92L29.66 5.92L29.66 5.92Q29.66 6.12 29.72 6.28L29.72 6.28L32.02 12.67L33.92 6.91L33.69 6.28L33.69 6.28Q33.41 5.54 33.30 5.35L33.30 5.35L33.30 5.35Q33.05 4.95 32.66 4.95L32.66 4.95L32.66 4.95Q32.45 4.95 32.45 4.74L32.45 4.74L32.45 4.31L32.45 4.31Q32.45 4.11 32.66 4.11L32.66 4.11L36.95 4.11L36.95 4.11Q37.16 4.11 37.16 4.31L37.16 4.31L37.16 4.74L37.16 4.74Q37.16 4.95 36.95 4.95L36.95 4.95L36.59 4.95L36.59 4.95Q36.31 4.95 36.06 5.17L36.06 5.17L36.06 5.17Q35.82 5.39 35.82 5.76L35.82 5.76L35.82 5.76Q35.82 5.93 35.91 6.20L35.91 6.20L38.23 12.67L40.34 6.28L40.34 6.28Q40.40 6.10 40.40 5.93L40.40 5.93L40.40 5.93Q40.40 5.51 40.08 5.23L40.08 5.23L40.08 5.23Q39.76 4.95 39.31 4.95L39.31 4.95L39.31 4.95Q39.10 4.95 39.10 4.74L39.10 4.74L39.10 4.31L39.10 4.31Q39.10 4.11 39.31 4.11L39.31 4.11L42.79 4.11L42.79 4.11Q43.00 4.11 43.00 4.31L43.00 4.31L43.00 4.74L43.00 4.74Q43.00 4.95 42.79 4.95L42.79 4.95L42.79 4.95Q42.58 4.95 42.43 5.02L42.43 5.02L42.43 5.02Q42.28 5.10 42.15 5.31L42.15 5.31L42.15 5.31Q42.03 5.53 41.97 5.66L41.97 5.66L41.97 5.66Q41.92 5.79 41.79 6.15L41.79 6.15L41.79 6.15Q41.76 6.23 41.75 6.28L41.75 6.28L38.87 14.47L38.87 14.47Q38.81 14.64 38.63 14.64L38.63 14.64L36.95 14.64L36.95 14.64Q36.77 14.64 36.71 14.47L36.71 14.47L34.64 8.85L32.66 14.47L32.66 14.47Q32.60 14.64 32.42 14.64L32.42 14.64L30.73 14.64L30.73 14.64Q30.56 14.64 30.50 14.47L30.50 14.47L27.48 6.28L27.48 6.28Q27.21 5.54 27.09 5.35L27.09 5.35L27.09 5.35Q26.84 4.95 26.45 4.95L26.45 4.95L26.45 4.95Q26.24 4.95 26.24 4.74ZM42.75 14.43L42.75 14.43L42.75 14.01L42.75 14.01Q42.75 13.80 42.96 13.80L42.96 13.80L42.98 13.80L42.98 13.80Q43.48 13.79 43.75 13.43L43.75 13.43L43.75 13.43Q44.00 13.07 44.00 12.52L44.00 12.52L44.00 12.52Q44.00 12.50 44.00 12.47L44.00 12.47L44.00 10.99L44.00 10.99Q44.00 10.70 43.98 10.49L43.98 10.49L43.98 10.49Q43.96 10.29 43.88 10.05L43.88 10.05L43.88 10.05Q43.80 9.81 43.63 9.67L43.63 9.67L43.63 9.67Q43.45 9.53 43.18 9.50L43.18 9.50L43.18 9.50Q43.00 9.48 43.01 9.32L43.01 9.32L43.01 8.85L43.01 8.85Q43.01 8.76 43.06 8.73L43.06 8.73L43.06 8.73Q43.10 8.70 43.21 8.66L43.21 8.66L43.21 8.66Q45.01 8.06 45.79 7.24L45.79 7.24L45.79 7.24Q45.82 7.21 45.85 7.21L45.85 7.21L45.88 7.21L45.88 7.21Q45.90 7.21 45.91 7.23L45.91 7.23L45.91 12.47L45.91 12.47Q45.91 13.06 46.18 13.43L46.18 13.43L46.18 13.43Q46.44 13.80 46.94 13.80L46.94 13.80L46.98 13.80L46.98 13.80Q47.19 13.80 47.19 14.01L47.19 14.01L47.19 14.43L47.19 14.43Q47.19 14.53 47.12 14.59L47.12 14.59L47.12 14.59Q47.05 14.64 46.95 14.64L46.95 14.64L42.99 14.64L42.99 14.64Q42.89 14.64 42.82 14.59L42.82 14.59L42.82 14.59Q42.75 14.53 42.75 14.43ZM43.88 5.33L43.88 5.33L43.88 5.33Q43.88 4.98 44.23 4.63L44.23 4.63L44.23 4.63Q44.58 4.29 44.93 4.29L44.93 4.29L44.93 4.29Q45.28 4.29 45.63 4.63L45.63 4.63L45.63 4.63Q45.99 4.99 45.99 5.33L45.99 5.33L45.99 5.33Q45.99 5.68 45.63 6.04L45.63 6.04L45.63 6.04Q45.28 6.38 44.93 6.38L44.93 6.38L44.93 6.38Q44.58 6.38 44.23 6.04L44.23 6.04L44.23 6.04Q43.88 5.69 43.88 5.33ZM47.74 14.43L47.74 14.43L47.74 13.83L47.74 13.83Q47.74 13.73 47.80 13.68L47.80 13.68L52.19 8.54L50.86 8.61L50.86 8.61Q50.14 8.64 49.64 8.93L49.64 8.93L49.64 8.93Q49.14 9.21 48.76 9.82L48.76 9.82L48.69 9.91L48.69 9.91Q48.63 10.03 48.53 10.03L48.53 10.03L48.53 10.03Q48.47 10.03 48.41 9.99L48.41 9.99L47.93 9.71L47.93 9.71Q47.84 9.66 47.82 9.60L47.82 9.60L47.82 9.55L47.82 9.55Q47.82 9.47 47.85 9.43L47.85 9.43L49.01 7.59L49.01 7.59Q49.08 7.46 49.19 7.46L49.19 7.46L49.19 7.46Q49.25 7.46 49.29 7.51L49.29 7.51L49.36 7.57L49.36 7.57Q49.42 7.64 49.62 7.64L49.62 7.64L54.78 7.64L54.78 7.64Q54.97 7.64 54.97 7.77L54.97 7.77L54.97 7.77Q54.97 7.83 54.91 7.90L54.91 7.90L49.98 13.71L51.07 13.68L51.07 13.68Q52.12 13.64 52.59 13.54L52.59 13.54L52.59 13.54Q53.73 13.30 54.21 12.48L54.21 12.48L54.25 12.40L54.25 12.40Q54.31 12.29 54.42 12.29L54.42 12.29L54.42 12.29Q54.48 12.29 54.54 12.33L54.54 12.33L54.97 12.58L54.97 12.58Q55.08 12.64 55.08 12.74L55.08 12.74L55.08 12.74Q55.08 12.81 55.05 12.87L55.05 12.87L53.96 14.71L53.96 14.71Q53.89 14.83 53.79 14.83L53.79 14.83L53.79 14.83Q53.74 14.83 53.68 14.78L53.68 14.78L53.60 14.71L53.60 14.71Q53.52 14.64 53.34 14.64L53.34 14.64L47.95 14.64L47.95 14.64Q47.74 14.64 47.74 14.43Z"></path></g><!----><g data-v-423bf9ae="" id="111ad8c6-41d1-45f4-8018-c2df434ab974" transform="matrix(2.8125,0,0,2.8125,0,0)" stroke="none" fill="white"><path d="M9.382 8.675h13.943v13.943L32 31.293V0H.707zM22.618 23.325H8.675V9.382L0 .707V32h31.293z"></path></g><!----></svg>